<svg id="visual" viewBox="0 0 900 600" width="900" height="600" xmlns="http://www.w3.org/2000/svg" xmlns:xlink="http://www.w3.org/1999/xlink" version="1.1"><g stroke-width="1" stroke-linejoin="bevel"><path d="M465 303L504 363L598 327Z" fill="#1d4e6b" stroke="#1d4e6b"></path><path d="M598 327L514 222L465 303Z" fill="#19435d" stroke="#19435d"></path><path d="M598 327L562 213L514 222Z" fill="#112e42" stroke="#112e42"></path><path d="M598 327L680 279L562 213Z" fill="#15384f" stroke="#15384f"></path><path d="M504 363L627 433L598 327Z" fill="#19435d" stroke="#19435d"></path><path d="M598 327L676 412L680 279Z" fill="#081a28" stroke="#081a28"></path><path d="M386 175L362 300L465 303Z" fill="#0c2435" stroke="#0c2435"></path><path d="M465 303L377 434L504 363Z" fill="#00101c" stroke="#00101c"></path><path d="M504 363L482 489L627 433Z" fill="#246688" stroke="#246688"></path><path d="M627 433L676 412L598 327Z" fill="#1d4e6b" stroke="#1d4e6b"></path><path d="M585 80L521 119L562 213Z" fill="#112e42" stroke="#112e42"></path><path d="M562 213L521 119L514 222Z" fill="#1d4e6b" stroke="#1d4e6b"></path><path d="M514 222L386 175L465 303Z" fill="#1d4e6b" stroke="#1d4e6b"></path><path d="M521 119L386 175L514 222Z" fill="#297ea6" stroke="#297ea6"></path><path d="M377 434L482 489L504 363Z" fill="#15384f" stroke="#15384f"></path><path d="M793 317L716 217L680 279Z" fill="#19435d" stroke="#19435d"></path><path d="M680 279L716 217L562 213Z" fill="#0c2435" stroke="#0c2435"></path><path d="M362 300L377 434L465 303Z" fill="#19435d" stroke="#19435d"></path><path d="M482 489L567 521L627 433Z" fill="#0c2435" stroke="#0c2435"></path><path d="M627 433L689 464L676 412Z" fill="#112e42" stroke="#112e42"></path><path d="M567 521L689 464L627 433Z" fill="#112e42" stroke="#112e42"></path><path d="M676 412L793 317L680 279Z" fill="#19435d" stroke="#19435d"></path><path d="M675 71L585 80L562 213Z" fill="#15384f" stroke="#15384f"></path><path d="M521 119L378 136L386 175Z" fill="#277297" stroke="#277297"></path><path d="M427 0L378 136L521 119Z" fill="#19435d" stroke="#19435d"></path><path d="M386 175L304 179L362 300Z" fill="#277297" stroke="#277297"></path><path d="M377 434L419 501L482 489Z" fill="#15384f" stroke="#15384f"></path><path d="M470 600L591 600L567 521Z" fill="#081a28" stroke="#081a28"></path><path d="M268 321L322 420L362 300Z" fill="#00101c" stroke="#00101c"></path><path d="M362 300L322 420L377 434Z" fill="#00101c" stroke="#00101c"></path><path d="M377 434L260 470L419 501Z" fill="#112e42" stroke="#112e42"></path><path d="M793 377L793 317L676 412Z" fill="#112e42" stroke="#112e42"></path><path d="M337 129L304 179L386 175Z" fill="#0c2435" stroke="#0c2435"></path><path d="M427 0L337 129L378 136Z" fill="#1d4e6b" stroke="#1d4e6b"></path><path d="M378 136L337 129L386 175Z" fill="#112e42" stroke="#112e42"></path><path d="M304 179L268 321L362 300Z" fill="#0c2435" stroke="#0c2435"></path><path d="M771 98L675 71L716 217Z" fill="#112e42" stroke="#112e42"></path><path d="M716 217L675 71L562 213Z" fill="#081a28" stroke="#081a28"></path><path d="M689 464L793 377L676 412Z" fill="#15384f" stroke="#15384f"></path><path d="M793 317L814 210L716 217Z" fill="#15384f" stroke="#15384f"></path><path d="M900 300L814 210L793 317Z" fill="#1d4e6b" stroke="#1d4e6b"></path><path d="M470 600L567 521L482 489Z" fill="#112e42" stroke="#112e42"></path><path d="M567 521L703 600L689 464Z" fill="#112e42" stroke="#112e42"></path><path d="M689 464L822 475L793 377Z" fill="#15384f" stroke="#15384f"></path><path d="M407 600L470 600L419 501Z" fill="#112e42" stroke="#112e42"></path><path d="M419 501L470 600L482 489Z" fill="#205a7a" stroke="#205a7a"></path><path d="M585 80L470 0L521 119Z" fill="#1d4e6b" stroke="#1d4e6b"></path><path d="M618 0L470 0L585 80Z" fill="#081a28" stroke="#081a28"></path><path d="M814 210L771 98L716 217Z" fill="#246688" stroke="#246688"></path><path d="M675 71L618 0L585 80Z" fill="#112e42" stroke="#112e42"></path><path d="M689 0L618 0L675 71Z" fill="#277297" stroke="#277297"></path><path d="M470 0L427 0L521 119Z" fill="#297ea6" stroke="#297ea6"></path><path d="M180 403L260 470L322 420Z" fill="#19435d" stroke="#19435d"></path><path d="M322 420L260 470L377 434Z" fill="#112e42" stroke="#112e42"></path><path d="M289 600L407 600L419 501Z" fill="#19435d" stroke="#19435d"></path><path d="M763 600L822 475L689 464Z" fill="#19435d" stroke="#19435d"></path><path d="M793 377L900 300L793 317Z" fill="#246688" stroke="#246688"></path><path d="M771 98L689 0L675 71Z" fill="#19435d" stroke="#19435d"></path><path d="M181 193L192 272L304 179Z" fill="#246688" stroke="#246688"></path><path d="M304 179L192 272L268 321Z" fill="#081a28" stroke="#081a28"></path><path d="M268 321L180 403L322 420Z" fill="#205a7a" stroke="#205a7a"></path><path d="M181 193L304 179L170 104Z" fill="#297ea6" stroke="#297ea6"></path><path d="M591 600L703 600L567 521Z" fill="#19435d" stroke="#19435d"></path><path d="M900 419L900 300L793 377Z" fill="#15384f" stroke="#15384f"></path><path d="M814 210L900 97L771 98Z" fill="#0c2435" stroke="#0c2435"></path><path d="M192 272L180 403L268 321Z" fill="#277297" stroke="#277297"></path><path d="M260 470L289 600L419 501Z" fill="#297ea6" stroke="#297ea6"></path><path d="M170 104L304 179L337 129Z" fill="#1d4e6b" stroke="#1d4e6b"></path><path d="M192 272L137 303L180 403Z" fill="#15384f" stroke="#15384f"></path><path d="M703 600L763 600L689 464Z" fill="#246688" stroke="#246688"></path><path d="M900 300L900 200L814 210Z" fill="#19435d" stroke="#19435d"></path><path d="M771 98L811 0L689 0Z" fill="#00101c" stroke="#00101c"></path><path d="M900 462L900 419L822 475Z" fill="#112e42" stroke="#112e42"></path><path d="M822 475L900 419L793 377Z" fill="#15384f" stroke="#15384f"></path><path d="M190 600L289 600L260 470Z" fill="#112e42" stroke="#112e42"></path><path d="M181 193L137 303L192 272Z" fill="#081a28" stroke="#081a28"></path><path d="M105 531L184 489L180 403Z" fill="#15384f" stroke="#15384f"></path><path d="M180 403L184 489L260 470Z" fill="#297ea6" stroke="#297ea6"></path><path d="M427 0L271 0L337 129Z" fill="#081a28" stroke="#081a28"></path><path d="M900 600L900 462L822 475Z" fill="#205a7a" stroke="#205a7a"></path><path d="M900 97L811 0L771 98Z" fill="#0c2435" stroke="#0c2435"></path><path d="M271 0L170 104L337 129Z" fill="#00101c" stroke="#00101c"></path><path d="M181 193L68 185L137 303Z" fill="#15384f" stroke="#15384f"></path><path d="M900 200L900 97L814 210Z" fill="#112e42" stroke="#112e42"></path><path d="M271 0L236 0L170 104Z" fill="#081a28" stroke="#081a28"></path><path d="M0 290L106 364L137 303Z" fill="#19435d" stroke="#19435d"></path><path d="M137 303L106 364L180 403Z" fill="#297ea6" stroke="#297ea6"></path><path d="M184 489L190 600L260 470Z" fill="#205a7a" stroke="#205a7a"></path><path d="M105 531L190 600L184 489Z" fill="#1d4e6b" stroke="#1d4e6b"></path><path d="M763 600L900 600L822 475Z" fill="#246688" stroke="#246688"></path><path d="M900 97L900 0L811 0Z" fill="#112e42" stroke="#112e42"></path><path d="M79 99L68 185L170 104Z" fill="#00101c" stroke="#00101c"></path><path d="M170 104L68 185L181 193Z" fill="#277297" stroke="#277297"></path><path d="M0 363L105 531L106 364Z" fill="#00101c" stroke="#00101c"></path><path d="M106 364L105 531L180 403Z" fill="#00101c" stroke="#00101c"></path><path d="M89 0L79 99L170 104Z" fill="#277297" stroke="#277297"></path><path d="M0 600L112 600L105 531Z" fill="#081a28" stroke="#081a28"></path><path d="M105 531L112 600L190 600Z" fill="#277297" stroke="#277297"></path><path d="M0 197L0 290L68 185Z" fill="#1d4e6b" stroke="#1d4e6b"></path><path d="M68 185L0 290L137 303Z" fill="#15384f" stroke="#15384f"></path><path d="M236 0L89 0L170 104Z" fill="#297ea6" stroke="#297ea6"></path><path d="M0 75L0 197L68 185Z" fill="#277297" stroke="#277297"></path><path d="M0 290L0 363L106 364Z" fill="#15384f" stroke="#15384f"></path><path d="M0 75L68 185L79 99Z" fill="#00101c" stroke="#00101c"></path><path d="M89 0L0 75L79 99Z" fill="#277297" stroke="#277297"></path><path d="M0 363L0 539L105 531Z" fill="#297ea6" stroke="#297ea6"></path><path d="M0 539L0 600L105 531Z" fill="#00101c" stroke="#00101c"></path><path d="M89 0L0 0L0 75Z" fill="#277297" stroke="#277297"></path></g></svg>